<svg width="64" height="64" viewBox="0 0 64 64" fill="none" xmlns="http://www.w3.org/2000/svg">
<rect width="64" height="64" rx="12" fill="#EFF6FF"/>
<path fill-rule="evenodd" clip-rule="evenodd" d="M33.4572 50.4853C42.4324 50.4853 49.7083 43.2094 49.7083 34.2341C49.7083 25.2588 42.4324 17.9829 33.4572 17.9829C27.2735 17.9829 21.8965 21.4366 19.1498 26.5202C18.9196 26.853 18.6628 27.3162 18.3803 27.8257C17.598 29.2367 16.6192 31.0021 15.4646 31.3321C14.3038 31.6638 13.5802 32.1531 14.1606 33.8943C14.6907 35.4847 19.1531 46.7411 27.8443 49.4899C29.5937 50.1337 31.4844 50.4853 33.4572 50.4853Z" fill="#F5C2D0"/>
<path fill-rule="evenodd" clip-rule="evenodd" d="M22.6787 22.0906C26.516 22.6465 33.3985 24.1296 38.8279 30.4122C44.1382 36.5569 44.3441 39.9962 44.6461 45.0387C44.6646 45.3478 44.6834 45.6629 44.7039 45.985C47.795 43.0265 49.7201 38.8595 49.7201 34.2429C49.7201 25.2676 42.4442 17.9917 33.4689 17.9917C29.3278 17.9917 25.5485 19.5406 22.6787 22.0906Z" fill="#1E293B"/>
<path d="M49.6447 31.5728L13.4227 19.5035C12.951 19.3164 12.3557 18.0312 14.8376 17.5388C16.2524 17.2582 20.4973 18.0066 21.9122 18.9422C24.5534 15.7611 32.1563 10.4095 41.4382 14.4513C50.7201 18.4931 50.7767 27.5497 49.6447 31.5728Z" fill="#2563EB"/>
<ellipse cx="24.027" cy="30.4119" rx="1.1608" ry="1.7412" transform="rotate(-0.774191 24.027 30.4119)" fill="#334155"/>
<circle cx="42.5999" cy="35.055" r="4.0628" fill="#F5C2D0"/>
</svg>
