<svg width="270" height="89" viewBox="0 0 270 89" fill="none" xmlns="http://www.w3.org/2000/svg">
<path d="M91.99 33.3692H81.5804C80.6279 33.3692 79.7774 33.7098 79.029 34.3909C78.2806 35.0721 77.8554 35.8894 77.7533 36.843C77.6173 37.8307 77.8384 38.6651 78.4167 39.3462C78.995 39.9933 79.7604 40.3169 80.7129 40.3169H81.0701C82.4989 40.3169 83.8086 40.5893 84.9992 41.1342C86.1899 41.6791 87.1934 42.4284 88.0099 43.382C88.8603 44.3015 89.4727 45.3914 89.8469 46.6515C90.2551 47.9116 90.3742 49.2568 90.2041 50.6872C90.034 52.1176 89.5917 53.4799 88.8773 54.7741C88.197 56.0342 87.3295 57.141 86.2749 58.0946C85.2204 59.0142 84.0297 59.7464 82.703 60.2913C81.3763 60.8362 79.9985 61.1087 78.5698 61.1087H68.1602L68.9766 54.161H79.3862C80.3387 54.161 81.1892 53.8375 81.9376 53.1904C82.72 52.5093 83.1793 51.6749 83.3153 50.6872C83.4174 49.7336 83.1623 48.9333 82.5499 48.2862C81.9716 47.6051 81.2062 47.2645 80.2537 47.2645H79.8965C78.4677 47.2645 77.158 46.992 75.9674 46.4471C74.7767 45.9022 73.7732 45.17 72.9567 44.2504C72.1403 43.2968 71.528 42.19 71.1198 40.9299C70.7456 39.6357 70.6435 38.2734 70.8136 36.843C70.9837 35.4126 71.4089 34.0674 72.0893 32.8073C72.8037 31.5472 73.6881 30.4573 74.7427 29.5378C75.7973 28.5842 76.9879 27.8349 78.3146 27.29C79.6414 26.7451 81.0191 26.4727 82.4479 26.4727H92.8575L91.99 33.3692Z" fill="#1F2937"/>
<path d="M103.012 26.4727L98.7771 61.1087H91.8373L96.0726 26.4727H103.012Z" fill="#1F2937"/>
<path d="M112.556 35.7191L109.443 61.1087H102.555L105.667 35.7191H112.556ZM113.679 26.5237L112.811 33.4203H105.923L106.79 26.5237H113.679Z" fill="#1F2937"/>
<path d="M138.578 26.4727L134.343 61.1087H119.596C118.643 61.1087 117.759 60.9384 116.942 60.5978C116.16 60.2232 115.497 59.7294 114.952 59.1163C114.408 58.4693 114 57.737 113.728 56.9197C113.49 56.0682 113.422 55.1657 113.524 54.2121L114.646 44.9656C114.816 43.7055 115.208 42.5135 115.82 41.3896C116.432 40.2658 117.198 39.2781 118.116 38.4267C119.069 37.5753 120.123 36.9111 121.28 36.4343C122.47 35.9575 123.712 35.7191 125.005 35.7191H130.567L131.689 26.4727H138.578ZM128.271 54.2121L129.699 42.6668H124.137C123.491 42.6668 122.913 42.8882 122.402 43.3309C121.892 43.7736 121.603 44.3186 121.535 44.9656L120.719 51.8622L120.412 54.2121H128.271Z" fill="#1F2937"/>
<path d="M166.323 54.2121L165.506 61.1087H162.241C160.982 61.1087 159.825 60.8703 158.771 60.3935C157.716 59.9167 156.815 59.2526 156.066 58.4011C155.318 57.5497 154.774 56.5791 154.433 55.4893C154.093 54.3654 154.008 53.1564 154.178 51.8622L155.301 42.6668H153.719L154.586 35.7191H156.168L156.423 33.4203L157.291 26.4727H164.18L163.312 33.4203L163.057 35.7191H168.619L167.752 42.6668H162.19L161.067 51.8622C160.999 52.5093 161.152 53.0712 161.526 53.548C161.934 53.9908 162.445 54.2121 163.057 54.2121H166.323Z" fill="#3B82F6"/>
<path d="M192.149 44.9656L191.333 51.9133C191.163 53.1734 190.771 54.3654 190.159 55.4893C189.547 56.6132 188.764 57.6008 187.812 58.4522C186.893 59.2696 185.839 59.9167 184.648 60.3935C183.491 60.8703 182.284 61.1087 181.025 61.1087H177.147C175.888 61.1087 174.732 60.8703 173.677 60.3935C172.623 59.9167 171.721 59.2696 170.973 58.4522C170.224 57.6008 169.68 56.6132 169.34 55.4893C169 54.3654 168.915 53.1734 169.085 51.9133L169.901 44.9656C170.071 43.7055 170.462 42.5135 171.075 41.3896C171.687 40.2658 172.453 39.2951 173.371 38.4778C174.324 37.6263 175.378 36.9622 176.535 36.4854C177.725 36.0086 178.95 35.7702 180.209 35.7702H184.087C185.345 35.7702 186.502 36.0086 187.557 36.4854C188.645 36.9622 189.547 37.6263 190.261 38.4778C191.01 39.2951 191.554 40.2658 191.894 41.3896C192.234 42.5135 192.319 43.7055 192.149 44.9656ZM184.444 51.9133L185.26 44.9656C185.328 44.3186 185.158 43.7736 184.75 43.3309C184.376 42.8882 183.883 42.6668 183.27 42.6668H179.392C178.746 42.6668 178.168 42.8882 177.657 43.3309C177.147 43.7736 176.858 44.3186 176.79 44.9656L175.973 51.9133C175.905 52.5604 176.058 53.1053 176.433 53.548C176.807 53.9908 177.317 54.2121 177.963 54.2121H181.842C182.454 54.2121 183.015 53.9908 183.525 53.548C184.07 53.1053 184.376 52.5604 184.444 51.9133Z" fill="#3B82F6"/>
<path d="M192.437 49.5123L193.355 45.3743H205.398L204.479 49.5123H198.458H192.437Z" fill="#3B82F6"/>
<path d="M234.355 26.4727L230.119 61.1087H215.372C214.42 61.1087 213.535 60.9384 212.719 60.5978C211.936 60.2232 211.273 59.7294 210.729 59.1163C210.184 58.4693 209.776 57.737 209.504 56.9197C209.266 56.0682 209.198 55.1657 209.3 54.2121L210.423 44.9656C210.593 43.7055 210.984 42.5135 211.596 41.3896C212.209 40.2658 212.974 39.2781 213.892 38.4267C214.845 37.5753 215.9 36.9111 217.056 36.4343C218.247 35.9575 219.488 35.7191 220.781 35.7191H226.343L227.466 26.4727H234.355ZM224.047 54.2121L225.476 42.6668H219.914C219.267 42.6668 218.689 42.8882 218.179 43.3309C217.669 43.7736 217.379 44.3186 217.311 44.9656L216.495 51.8622L216.189 54.2121H224.047Z" fill="#3B82F6"/>
<path d="M256.731 44.9656L255.914 51.9133C255.744 53.1734 255.353 54.3654 254.741 55.4893C254.128 56.6132 253.346 57.6008 252.394 58.4522C251.475 59.2696 250.42 59.9167 249.23 60.3935C248.073 60.8703 246.866 61.1087 245.607 61.1087H241.729C240.47 61.1087 239.313 60.8703 238.259 60.3935C237.204 59.9167 236.303 59.2696 235.554 58.4522C234.806 57.6008 234.262 56.6132 233.922 55.4893C233.581 54.3654 233.496 53.1734 233.666 51.9133L234.483 44.9656C234.653 43.7055 235.044 42.5135 235.657 41.3896C236.269 40.2658 237.034 39.2951 237.953 38.4778C238.905 37.6263 239.96 36.9622 241.116 36.4854C242.307 36.0086 243.532 35.7702 244.79 35.7702H248.669C249.927 35.7702 251.084 36.0086 252.138 36.4854C253.227 36.9622 254.128 37.6263 254.843 38.4778C255.591 39.2951 256.136 40.2658 256.476 41.3896C256.816 42.5135 256.901 43.7055 256.731 44.9656ZM249.026 51.9133L249.842 44.9656C249.91 44.3186 249.74 43.7736 249.332 43.3309C248.958 42.8882 248.464 42.6668 247.852 42.6668H243.974C243.328 42.6668 242.749 42.8882 242.239 43.3309C241.729 43.7736 241.44 44.3186 241.372 44.9656L240.555 51.9133C240.487 52.5604 240.64 53.1053 241.014 53.548C241.389 53.9908 241.899 54.2121 242.545 54.2121H246.423C247.036 54.2121 247.597 53.9908 248.107 53.548C248.652 53.1053 248.958 52.5604 249.026 51.9133Z" fill="#3B82F6"/>
<rect x="44.0557" y="25.5664" width="9.14054" height="39.1737" rx="3.91737" fill="#1D4ED8"/>
<path d="M12.7148 32.3674C12.7148 29.9193 14.4152 27.7997 16.8049 27.2686L41.615 21.7553C44.8769 21.0304 47.9712 23.5125 47.9712 26.8541V62.3778C47.9712 65.6435 45.008 68.1083 41.797 67.5137L16.9869 62.9192C14.5112 62.4608 12.7148 60.3013 12.7148 57.7834V32.3674Z" fill="#3B82F6"/>
<path d="M23.1621 43.1948L27.0795 47.7651L34.9142 38.6245" stroke="#F8FAFC" stroke-width="3.1339" stroke-linecap="round" stroke-linejoin="round"/>
</svg>
